# xmcd CD database file
#
# Track frame offsets:
#	150
#	21220
#	40190
#	56710
#	70418
#	88023
#	100845
#	117173
#	140203
#	156948
#	173190
#	191200
#
# Disc length: 2780 seconds
#
# Revision: 0
# Processed by: cddbd v1.5.1PL2 Copyright (c) Steve Scherf et al.
# Submitted via: CDex 1.51
#
DISCID=ae0ada0c
DTITLE=Chocolat - Chocolat and Akito
DYEAR=2005
DGENRE=Pop
TTITLE0=Walking In The Park
TTITLE1=Fall In Love
TTITLE2=100の疑問符
TTITLE3=Kiss Me Black
TTITLE4=Nostalgia
TTITLE5=I Will Forgive You
TTITLE6=Blue Tuesday
TTITLE7=Fly
TTITLE8=虹と雨
TTITLE9=Cry
TTITLE10=左ききの夢
TTITLE11=Time
EXTD=YEAR: 2005
EXTT0=
EXTT1=
EXTT2=
EXTT3=
EXTT4=
EXTT5=
EXTT6=
EXTT7=
EXTT8=
EXTT9=
EXTT10=
EXTT11=
PLAYORDER=
